HIERARCHY
ROOT Hips
{
	OFFSET 49.327999 -14.300216 94.065903
	CHANNELS 6 Xposition Yposition Zposition Xrotation Yrotation Zrotation
	JOINT spine
	{
		OFFSET 0.000000 -0.448574 7.800583
		CHANNELS 3 Xrotation Yrotation Zrotation
		JOINT spine1
		{
			OFFSET 0.000000 -0.000002 10.136398
			CHANNELS 3 Xrotation Yrotation Zrotation
			JOINT spine2
			{
				OFFSET 0.000000 -0.000002 9.712509
				CHANNELS 3 Xrotation Yrotation Zrotation
				JOINT Neck
				{
					OFFSET 0.000000 -1.188873 24.936096
					CHANNELS 3 Xrotation Yrotation Zrotation
					JOINT Head
					{
						OFFSET 0.000000 -0.000001 7.533844
						CHANNELS 3 Xrotation Yrotation Zrotation
						End Site
						{
							OFFSET 0.000000 6.014017 18.236099
						}
					}
				}
				JOINT RightShoulder
				{
					OFFSET -4.089649 0.569455 10.488800
					CHANNELS 3 Xrotation Yrotation Zrotation
					JOINT RightArm
					{
						OFFSET 0.000000 -0.000002 13.757004
						CHANNELS 3 Xrotation Yrotation Zrotation
						JOINT RightArmRoll
						{
							OFFSET 0.000000 -0.000001 6.944778
							CHANNELS 3 Xrotation Yrotation Zrotation
							JOINT RightForeArm
							{
								OFFSET 0.000000 -0.000004 20.227692
								CHANNELS 3 Xrotation Yrotation Zrotation
								JOINT RightForeArmRoll
								{
									OFFSET 0.000000 -0.000001 7.793121
									CHANNELS 3 Xrotation Yrotation Zrotation
									JOINT RightHand
									{
										OFFSET 0.000000 -0.000003 15.639099
										CHANNELS 3 Xrotation Yrotation Zrotation
										End Site
										{
											OFFSET 0.000000 0.000000 0.100006
										}
									}
								}
							}
						}
					}
				}
				JOINT LeftShoulder
				{
					OFFSET 4.089649 0.569455 10.488800
					CHANNELS 3 Xrotation Yrotation Zrotation
					JOINT LeftArm
					{
						OFFSET 0.000000 -0.000002 13.757004
						CHANNELS 3 Xrotation Yrotation Zrotation
						JOINT LeftArmRoll
						{
							OFFSET 0.000000 -0.000001 6.944778
							CHANNELS 3 Xrotation Yrotation Zrotation
							JOINT LeftForeArm
							{
								OFFSET 0.000000 -0.000004 20.227692
								CHANNELS 3 Xrotation Yrotation Zrotation
								JOINT LeftForeArmRoll
								{
									OFFSET 0.000000 -0.000001 7.793121
									CHANNELS 3 Xrotation Yrotation Zrotation
									JOINT LeftHand
									{
										OFFSET 0.000000 -0.000003 15.639099
										CHANNELS 3 Xrotation Yrotation Zrotation
										End Site
										{
											OFFSET 0.000000 0.000000 0.100006
										}
									}
								}
							}
						}
					}
				}
			}
		}
	}
	JOINT RightUpLeg
	{
		OFFSET -6.914150 1.063581 -1.267883
		CHANNELS 3 Xrotation Yrotation Zrotation
		JOINT RightUpLegRoll
		{
			OFFSET 0.000000 -0.000003 18.337799
			CHANNELS 3 Xrotation Yrotation Zrotation
			JOINT RightLeg
			{
				OFFSET 0.000000 0.000004 -22.708496
				CHANNELS 3 Xrotation Yrotation Zrotation
				JOINT RightLegRoll
				{
					OFFSET 0.000000 -0.000004 22.782799
					CHANNELS 3 Xrotation Yrotation Zrotation
					JOINT RightFoot
					{
						OFFSET 0.000000 -0.000003 18.962898
						CHANNELS 3 Xrotation Yrotation Zrotation
						JOINT RightToeBase
						{
							OFFSET 0.000000 -0.000003 15.852005
							CHANNELS 3 Xrotation Yrotation Zrotation
							End Site
							{
								OFFSET 0.006718 0.884892 7.677002
							}
						}
					}
				}
			}
		}
	}
	JOINT LeftUpLeg
	{
		OFFSET 6.914150 1.063581 -1.267883
		CHANNELS 3 Xrotation Yrotation Zrotation
		JOINT LeftUpLegRoll
		{
			OFFSET 0.000000 -0.000003 18.337898
			CHANNELS 3 Xrotation Yrotation Zrotation
			JOINT LeftLeg
			{
				OFFSET 0.000000 -0.000004 22.708397
				CHANNELS 3 Xrotation Yrotation Zrotation
				JOINT LeftLegRoll
				{
					OFFSET 0.000000 -0.000004 22.993393
					CHANNELS 3 Xrotation Yrotation Zrotation
					JOINT LeftFoot
					{
						OFFSET 0.000000 -0.000003 18.752197
						CHANNELS 3 Xrotation Yrotation Zrotation
						JOINT LeftToeBase
						{
							OFFSET 0.000000 -0.000003 15.852005
							CHANNELS 3 Xrotation Yrotation Zrotation
							End Site
							{
								OFFSET -0.030113 0.884892 7.677002
							}
						}
					}
				}
			}
		}
	}
}
MOTION
Frames: 10
Frame Time: 0.041667
50.121502 -13.589220 94.137802 -5.155016 0.653305 -2.261263 -0.804997 0.118944 0.303848 2.403308 0.224953 0.615157 4.048333 0.232181 0.612321 18.595984 3.520956 -0.948355 -20.642734 -5.623259 -1.352735 -25.911152 -80.839503 -29.682971 70.649721 -81.441243 88.410344 0.000004 0.000010 0.000004 11.357676 -10.566044 0.091290 -0.000000 0.000002 -3.001308 -5.000178 -7.998761 0.000153 6.636731 69.556638 -6.056112 30.253476 100.165660 -49.157753 0.000001 -0.000001 0.000001 13.783066 4.900203 0.561543 -0.000001 0.000014 3.000001 -5.000186 7.999407 -0.000086 1.884721 -178.689715 -0.331459 -179.999991 0.000005 -1.064999 170.095766 -0.937815 -0.684741 -0.000003 -0.000002 0.127792 70.892186 6.258487 3.717986 25.456957 -7.355614 0.000001 1.796837 -179.331329 6.857416 -0.000005 -0.000004 -1.455000 -12.165265 4.896053 0.731155 -0.000001 -0.000002 -0.256390 73.919695 -7.653352 0.505339 25.456960 7.355615 -0.000001 
50.117897 -13.584117 94.142097 -5.159487 0.654645 -2.261011 -0.803705 0.118950 0.304140 2.405088 0.226129 0.615862 4.050123 0.233376 0.613020 18.570581 3.508895 -0.946256 -20.607120 -5.609065 -1.349420 -25.922286 -80.840302 -29.694606 70.823802 -81.447895 88.607559 0.000005 0.000011 0.000002 11.438410 -10.539358 0.092518 -0.000000 0.000001 -3.001308 -5.000177 -7.998761 0.000151 6.637428 69.538019 -6.059682 29.967206 100.181991 -48.833807 0.000000 0.000000 0.000000 13.803880 4.906502 0.560286 0.000000 0.000014 3.000002 -5.000186 7.999408 -0.000087 1.899817 -178.689729 -0.328886 -179.999991 0.000005 -1.064999 170.116831 -0.939840 -0.683740 -0.000003 -0.000002 0.127792 70.882563 6.261719 3.709174 25.456953 -7.355614 0.000002 1.807295 -179.339334 6.846486 -0.000005 -0.000004 -1.454030 -12.149165 4.904808 0.731188 -0.000003 -0.000002 -0.255499 73.902756 -7.651116 0.496604 25.456965 7.355616 -0.000001 
50.119205 -13.564415 94.163002 -5.163758 0.655968 -2.260992 -0.802354 0.118960 0.304456 2.406969 0.227356 0.616655 4.051993 0.234621 0.613804 18.543274 3.496556 -0.944152 -20.570083 -5.594583 -1.346108 -25.932623 -80.840732 -29.705418 71.003245 -81.454999 88.810026 0.000004 0.000011 0.000004 11.519035 -10.512767 0.093630 -0.000000 0.000001 -3.001309 -5.000178 -7.998760 0.000150 6.637746 69.518007 -6.063045 29.678753 100.199859 -48.508000 0.000001 -0.000001 -0.000002 13.824281 4.912290 0.559048 0.000000 0.000014 3.000002 -5.000186 7.999407 -0.000088 1.915098 -178.689729 -0.326253 -179.999991 0.000005 -1.064999 170.138851 -0.942863 -0.682883 -0.000003 -0.000002 0.127792 70.872351 6.265123 3.700021 25.456957 -7.355615 0.000001 1.817950 -179.348323 6.834884 -0.000005 -0.000004 -1.453010 -12.131972 4.914168 0.731210 -0.000003 -0.000002 -0.254556 73.884779 -7.648768 0.487410 25.456957 7.355615 -0.000001 
50.121105 -13.575318 94.149597 -5.167901 0.657281 -2.261116 -0.800952 0.118972 0.304790 2.408909 0.228619 0.617507 4.053944 0.235902 0.614648 18.514556 3.484013 -0.942041 -20.531940 -5.579906 -1.342794 -25.942368 -80.840862 -29.715629 71.185768 -81.462368 89.015390 0.000004 0.000011 0.000002 11.599660 -10.486463 0.094713 0.000001 0.000002 -3.001308 -5.000175 -7.998761 0.000150 6.637844 69.497086 -6.066297 29.388795 100.218990 -48.180977 -0.000000 -0.000001 0.000000 13.844577 4.917712 0.557828 -0.000001 0.000014 3.000002 -5.000186 7.999408 -0.000086 1.930513 -178.690740 -0.323611 -179.999991 0.000005 -1.064999 170.161555 -0.944894 -0.680856 -0.000003 -0.000002 0.127792 70.861853 6.268624 3.690505 25.456960 -7.355615 0.000001 1.828740 -179.356328 6.822873 -0.000005 -0.000004 -1.451940 -12.114082 4.923935 0.731224 -0.000001 -0.000001 -0.253578 73.866187 -7.646279 0.477699 25.456959 7.355616 -0.000001 
50.121002 -13.585218 94.161789 -5.171955 0.658589 -2.261330 -0.799535 0.118985 0.305135 2.410888 0.229901 0.618394 4.055924 0.237205 0.615527 18.485040 3.471367 -0.939937 -20.493199 -5.565131 -1.339495 -25.951654 -80.840821 -29.725359 71.370866 -81.469861 89.223178 0.000005 0.000010 0.000006 11.680169 -10.460057 0.095659 0.000001 0.000001 -3.001311 -5.000180 -7.998759 0.000149 6.637786 69.475585 -6.069465 29.098283 100.239016 -47.853494 0.000001 0.000001 0.000000 13.864563 4.922944 0.556613 -0.000001 0.000014 3.000000 -5.000186 7.999408 -0.000085 1.945997 -178.690767 -0.320911 -179.999991 0.000005 -1.064999 170.184586 -0.947921 -0.679991 -0.000003 -0.000002 0.127792 70.851082 6.272212 3.680920 25.456960 -7.355614 0.000002 1.839595 -179.365330 6.810565 -0.000005 -0.000004 -1.450850 -12.095897 4.933953 0.731244 -0.000003 -0.000002 -0.252576 73.847254 -7.643759 0.467967 25.456962 7.355615 -0.000001 
50.121399 -13.581921 94.166992 -5.175994 0.659894 -2.261565 -0.798105 0.118999 0.305482 2.412879 0.231189 0.619291 4.057905 0.238512 0.616416 18.455422 3.458679 -0.937848 -20.454253 -5.550312 -1.336204 -25.961033 -80.840767 -29.735174 71.556846 -81.477327 89.431854 0.000004 0.000010 0.000001 11.760673 -10.433839 0.096559 0.000001 0.000001 -3.001310 -5.000178 -7.998762 0.000151 6.637699 69.453981 -6.072620 28.808635 100.259397 -47.526983 0.000000 -0.000000 -0.000000 13.884651 4.928113 0.555404 -0.000000 0.000014 3.000002 -5.000188 7.999407 -0.000085 1.961511 -178.690767 -0.318206 -179.999991 0.000005 -1.064999 170.207740 -0.950948 -0.679122 -0.000003 -0.000002 0.127792 70.840304 6.275798 3.671231 25.456957 -7.355613 0.000001 1.850474 -179.374332 6.798195 -0.000005 -0.000004 -1.449759 -12.077510 4.944022 0.731247 -0.000003 -0.000001 -0.251568 73.828191 -7.641204 0.458132 25.456962 7.355617 -0.000001 
50.117001 -13.582515 94.164101 -5.180066 0.661204 -2.261759 -0.796692 0.119012 0.305824 2.414850 0.232466 0.620171 4.059876 0.239811 0.617285 18.426110 3.446057 -0.935771 -20.415717 -5.535555 -1.332951 -25.970317 -80.840726 -29.744907 71.741978 -81.484587 89.639765 0.000004 0.000011 0.000002 11.841262 -10.407514 0.097389 0.000001 0.000002 -3.001309 -5.000178 -7.998762 0.000150 6.637673 69.432575 -6.075799 28.520351 100.279840 -47.201788 0.000000 0.000001 -0.000001 13.904743 4.933398 0.554177 -0.000001 0.000015 3.000000 -5.000187 7.999408 -0.000086 1.976975 -178.691778 -0.315547 -179.999991 0.000005 -1.064999 170.230717 -0.953962 -0.677240 -0.000003 -0.000002 0.127792 70.829615 6.279357 3.661638 25.456955 -7.355615 0.000001 1.861323 -179.383335 6.785939 -0.000005 -0.000004 -1.448681 -12.059323 4.953983 0.731245 -0.000004 -0.000002 -0.250575 73.809374 -7.638660 0.448414 25.456960 7.355613 -0.000001 
50.118801 -13.586823 94.161705 -5.184237 0.662520 -2.261841 -0.795307 0.119024 0.306154 2.416769 0.233719 0.621006 4.061804 0.241082 0.618113 18.397806 3.433569 -0.933719 -20.377794 -5.520934 -1.329715 -25.980293 -80.840958 -29.755337 71.924590 -81.491492 89.845203 0.000004 0.000010 0.000005 11.921848 -10.381183 0.098158 0.000001 0.000001 -3.001310 -5.000179 -7.998762 0.000151 6.637810 69.411873 -6.079056 28.234544 100.299866 -46.878918 0.000000 0.000000 0.000003 13.924940 4.938933 0.552940 -0.000000 0.000014 3.000001 -5.000187 7.999407 -0.000087 1.992344 -178.691792 -0.312884 -179.999991 0.000005 -1.064999 170.253216 -0.956006 -0.676208 -0.000003 -0.000002 0.127792 70.819226 6.282857 3.652118 25.456959 -7.355613 0.000001 1.872067 -179.391326 6.774036 -0.000005 -0.000004 -1.447620 -12.041734 4.963639 0.731247 -0.000004 -0.000002 -0.249605 73.790919 -7.636193 0.438811 25.456962 7.355615 -0.000001 
50.119705 -13.582719 94.161911 -5.188567 0.663849 -2.261750 -0.793970 0.119034 0.306463 2.418620 0.234931 0.621771 4.063656 0.242312 0.618870 18.371107 3.421301 -0.931694 -20.341190 -5.506528 -1.326524 -25.991062 -80.841566 -29.766596 72.104675 -81.497947 90.048394 0.000004 0.000010 0.000003 12.002414 -10.354748 0.098834 -0.000000 0.000001 -3.001311 -5.000180 -7.998761 0.000150 6.638283 69.392345 -6.082517 27.951936 100.319107 -46.559149 -0.000000 -0.000001 -0.000001 13.945547 4.944863 0.551670 -0.000000 0.000014 3.000002 -5.000185 7.999407 -0.000085 2.007582 -178.691805 -0.310268 -179.999991 0.000005 -1.064999 170.274949 -0.959017 -0.675353 -0.000003 -0.000002 0.127792 70.809213 6.286205 3.643150 25.456957 -7.355614 0.000001 1.882668 -179.399317 6.762644 -0.000005 -0.000004 -1.446620 -12.024837 4.972814 0.731230 -0.000002 -0.000001 -0.248676 73.773399 -7.633794 0.429760 25.456964 7.355614 -0.000001 
50.118896 -13.584318 94.171898 -5.193120 0.665195 -2.261414 -0.792701 0.119039 0.306743 2.420371 0.236088 0.622441 4.065396 0.243486 0.619533 18.346419 3.409341 -0.929689 -20.306202 -5.492423 -1.323368 -26.002653 -80.842563 -29.778710 72.278633 -81.503732 90.245582 0.000004 0.000010 0.000001 12.083061 -10.328102 0.099454 -0.000000 0.000001 -3.001312 -5.000178 -7.998761 0.000150 6.639132 69.374218 -6.086168 27.673135 100.337186 -46.242901 -0.000000 -0.000001 -0.000000 13.966572 4.951365 0.550357 -0.000001 0.000014 3.000001 -5.000186 7.999408 -0.000087 2.022597 -178.692802 -0.307754 -179.999991 0.000005 -1.064999 170.295590 -0.961055 -0.674349 -0.000003 -0.000002 0.127792 70.799774 6.289376 3.634721 25.456955 -7.355615 0.000000 1.893067 -179.407309 6.751940 -0.000005 -0.000004 -1.445678 -12.009032 4.981342 0.731214 -0.000002 -0.000002 -0.247807 73.756850 -7.631553 0.421155 25.456962 7.355615 -0.000001 
